<svg xmlns="http://www.w3.org/2000/svg" xmlns:xlink="http://www.w3.org/1999/xlink" version="1.1" x="0px" y="0px" viewBox="0 0 32 40" style="enable-background:new 0 0 32 32;" xml:space="preserve"><path d="M11,15.5c1.378,0,2.5-1.122,2.5-2.5s-1.122-2.5-2.5-2.5S8.5,11.622,8.5,13S9.622,15.5,11,15.5z M11,11.5  c0.827,0,1.5,0.673,1.5,1.5s-0.673,1.5-1.5,1.5S9.5,13.827,9.5,13S10.173,11.5,11,11.5z"/><path d="M21,10.5c-1.378,0-2.5,1.122-2.5,2.5s1.122,2.5,2.5,2.5s2.5-1.122,2.5-2.5S22.378,10.5,21,10.5z M21,14.5  c-0.827,0-1.5-0.673-1.5-1.5s0.673-1.5,1.5-1.5s1.5,0.673,1.5,1.5S21.827,14.5,21,14.5z"/><path d="M23.124,18.517c-0.272-0.072-0.539,0.093-0.608,0.359C22.477,19.024,21.505,22.5,16,22.5c-5.5,0-6.475-3.469-6.516-3.624  c-0.067-0.267-0.338-0.427-0.605-0.361c-0.268,0.067-0.431,0.338-0.364,0.606C8.56,19.3,9.682,23.5,16,23.5s7.44-4.2,7.485-4.379  C23.552,18.854,23.39,18.585,23.124,18.517z"/><path d="M25,2.5H7C4.519,2.5,2.5,4.519,2.5,7v18c0,2.481,2.019,4.5,4.5,4.5h18c2.481,0,4.5-2.019,4.5-4.5V7  C29.5,4.519,27.481,2.5,25,2.5z M28.5,25c0,1.93-1.57,3.5-3.5,3.5H7c-1.93,0-3.5-1.57-3.5-3.5V7c0-1.93,1.57-3.5,3.5-3.5h18  c1.93,0,3.5,1.57,3.5,3.5V25z"/><text x="0" y="47" fill="#000000" font-size="5px" font-weight="bold" font-family="'Helvetica Neue', Helvetica, Arial-Unicode, Arial, Sans-serif">Created by Igé Maulana</text><text x="0" y="52" fill="#000000" font-size="5px" font-weight="bold" font-family="'Helvetica Neue', Helvetica, Arial-Unicode, Arial, Sans-serif">from the Noun Project</text></svg>