<?xml version="1.0" encoding="utf-8"?>
<!-- Generator: Adobe Illustrator 25.0.0, SVG Export Plug-In . SVG Version: 6.00 Build 0)  -->
<svg version="1.1" id="Layer_1" xmlns="http://www.w3.org/2000/svg" xmlns:xlink="http://www.w3.org/1999/xlink" x="0px" y="0px"
	 viewBox="0 0 64 80" style="enable-background:new 0 0 64 80;" xml:space="preserve">
<rect x="21" y="41" width="22" height="2"/>
<path d="M26.5,25c0-2.2-1.8-4-4-4s-4,1.8-4,4s1.8,4,4,4S26.5,27.2,26.5,25z M20.5,25c0-1.1,0.9-2,2-2s2,0.9,2,2s-0.9,2-2,2
	S20.5,26.1,20.5,25z"/>
<path d="M41.5,21c-2.2,0-4,1.8-4,4s1.8,4,4,4s4-1.8,4-4S43.7,21,41.5,21z M41.5,27c-1.1,0-2-0.9-2-2s0.9-2,2-2s2,0.9,2,2
	S42.6,27,41.5,27z"/>
<path d="M51,4H13c-5,0-9,4-9,9v38c0,5,4,9,9,9h38c5,0,9-4,9-9V13C60,8,56,4,51,4z M58,51c0,3.9-3.1,7-7,7H13c-3.9,0-7-3.1-7-7V13
	c0-3.9,3.1-7,7-7h38c3.9,0,7,3.1,7,7V51z"/>
</svg>
