<svg xmlns="http://www.w3.org/2000/svg" xmlns:xlink="http://www.w3.org/1999/xlink" version="1.1" x="0px" y="0px" viewBox="0 0 32 40" style="enable-background:new 0 0 32 32;" xml:space="preserve"><path d="M16,18.5c-6.317,0-7.44,4.2-7.485,4.379c-0.066,0.267,0.096,0.536,0.362,0.604C8.918,23.494,8.959,23.499,9,23.499  c0.223,0,0.426-0.15,0.484-0.375C9.523,22.976,10.494,19.5,16,19.5c5.5,0,6.476,3.469,6.516,3.624C22.573,23.35,22.776,23.5,23,23.5  c0.04,0,0.081-0.005,0.121-0.015c0.269-0.067,0.431-0.338,0.364-0.606C23.44,22.7,22.317,18.5,16,18.5z"/><path d="M11,15.5c1.379,0,2.5-1.122,2.5-2.5c0-0.845-0.436-1.603-1.099-2.058l0.856-0.514c0.237-0.142,0.314-0.449,0.172-0.686  c-0.143-0.237-0.451-0.312-0.686-0.171l-1.7,1.02c-0.022,0.013-0.044,0.022-0.063,0.038l-3.236,1.942  c-0.237,0.142-0.314,0.449-0.172,0.686C7.665,13.414,7.831,13.5,8,13.5c0.088,0,0.177-0.023,0.257-0.071l0.27-0.162  C8.662,14.518,9.712,15.5,11,15.5z M12.5,13c0,0.827-0.673,1.5-1.5,1.5S9.5,13.827,9.5,13c0-0.128,0.033-0.24,0.063-0.355  l1.802-1.081C12.017,11.731,12.5,12.312,12.5,13z"/><path d="M24.257,12.571l-3.239-1.943c-0.017-0.013-0.036-0.021-0.054-0.033l-1.707-1.024c-0.233-0.141-0.543-0.066-0.686,0.171  c-0.143,0.237-0.065,0.544,0.172,0.686l0.856,0.514C18.936,11.397,18.5,12.155,18.5,13c0,1.378,1.121,2.5,2.5,2.5  c1.288,0,2.338-0.982,2.473-2.233l0.27,0.162C23.823,13.477,23.912,13.5,24,13.5c0.169,0,0.335-0.086,0.429-0.243  C24.571,13.021,24.494,12.713,24.257,12.571z M22.5,13c0,0.827-0.673,1.5-1.5,1.5s-1.5-0.673-1.5-1.5  c0-0.688,0.483-1.269,1.135-1.436l1.802,1.081C22.467,12.76,22.5,12.872,22.5,13z"/><path d="M25,2.5H7C4.519,2.5,2.5,4.519,2.5,7v18c0,2.481,2.019,4.5,4.5,4.5h18c2.481,0,4.5-2.019,4.5-4.5V7  C29.5,4.519,27.481,2.5,25,2.5z M28.5,25c0,1.93-1.57,3.5-3.5,3.5H7c-1.93,0-3.5-1.57-3.5-3.5V7c0-1.93,1.57-3.5,3.5-3.5h18  c1.93,0,3.5,1.57,3.5,3.5V25z"/><text x="0" y="47" fill="#000000" font-size="5px" font-weight="bold" font-family="'Helvetica Neue', Helvetica, Arial-Unicode, Arial, Sans-serif">Created by Igé Maulana</text><text x="0" y="52" fill="#000000" font-size="5px" font-weight="bold" font-family="'Helvetica Neue', Helvetica, Arial-Unicode, Arial, Sans-serif">from the Noun Project</text></svg>